<svg width="46" height="30" viewBox="0 0 46 30" fill="none" xmlns="http://www.w3.org/2000/svg">
    <path
        d="M46 24.902C46 28.5435 41.3783 31.0083 37.1981 29.5961L2.32965 17.8165C-0.77655 16.7671 -0.77655 13.2329 2.32965 12.1835L37.1981 0.403906C41.3783 -1.00831 46 1.45645 46 5.09802V24.902Z"
        fill="url(#paint0_linear_3646_12263)"></path>
    <path
        d="M46 24.902C46 28.5435 41.3783 31.0083 37.1981 29.5961L2.32965 17.8165C-0.77655 16.7671 -0.77655 13.2329 2.32965 12.1835L37.1981 0.403906C41.3783 -1.00831 46 1.45645 46 5.09802V24.902Z"
        fill='rgba(103, 44, 184, 0.2)'></path>
    <path
        d="M43.5 22.9216C43.5 24.1239 42.6695 25.2024 41.316 25.8665C39.9697 26.527 38.188 26.7257 36.4945 26.1994L6.17418 16.7757C4.974 16.4027 4.5 15.6418 4.5 15C4.5 14.3582 4.974 13.5973 6.17418 13.2243L36.4945 3.8006C38.188 3.27426 39.9697 3.47297 41.316 4.13352C42.6695 4.79762 43.5 5.87613 43.5 7.07841V22.9216Z"
        fill="rgb(103, 44, 184)" class="pointer__TopLayer-sc-gudgnq-1 hjNetS"></path>
    <defs>
        <linearGradient id="paint0_linear_3646_12263" x1="26.3289" y1="22.9371" x2="18.9843" y2="-7.0233"
            gradientUnits="userSpaceOnUse">
            <stop stop-color="#FAFAFA"></stop>
            <stop offset="1" stop-color="#E7E7E7"></stop>
        </linearGradient>
    </defs>
</svg>
